<svg width="15" height="16" viewBox="0 0 15 16" fill="none" xmlns="http://www.w3.org/2000/svg">
<path d="M3.16667 1L1 3.8V13.6C1 13.9713 1.15218 14.3274 1.42307 14.5899C1.69395 14.8525 2.06135 15 2.44444 15H12.5556C12.9386 15 13.306 14.8525 13.5769 14.5899C13.8478 14.3274 14 13.9713 14 13.6V3.8L11.8333 1H3.16667Z" stroke="#051145" stroke-width="1.5" stroke-linecap="round" stroke-linejoin="round"/>
<path d="M1 3.79999H14" stroke="#051145" stroke-width="1.5" stroke-linecap="round" stroke-linejoin="round"/>
<path d="M10.3889 6.60001C10.3889 7.34261 10.0845 8.0548 9.54273 8.57991C9.00095 9.10501 8.26615 9.40001 7.49997 9.40001C6.73379 9.40001 5.99899 9.10501 5.45722 8.57991C4.91545 8.0548 4.61108 7.34261 4.61108 6.60001" stroke="#051145" stroke-width="1.5" stroke-linecap="round" stroke-linejoin="round"/>
</svg>
